<svg width="60" height="60" viewBox="0 0 60 60" fill="none" xmlns="http://www.w3.org/2000/svg">
<circle cx="30" cy="30" r="30" fill="#86C7ED"/>
<path d="M36.1658 43.0886L36.1658 38.5827C36.1658 38.2193 35.9687 37.8846 35.651 37.7083L30.3569 34.7703C30.0508 34.6004 29.6781 34.603 29.3744 34.777L16.4795 42.1669C15.5917 42.6757 15.9505 44.0315 16.9737 44.0346L35.1628 44.0886C35.7162 44.0903 36.1658 43.6421 36.1658 43.0886Z" fill="white"/>
<path d="M23.8455 16.9227V21.4287C23.8455 21.792 24.0425 22.1268 24.3602 22.3031L29.6544 25.2411C29.9604 25.411 30.3331 25.4084 30.6368 25.2343L43.5318 17.8444C44.4195 17.3356 44.0607 15.9798 43.0375 15.9768L24.8484 15.9227C24.295 15.9211 23.8455 16.3693 23.8455 16.9227Z" fill="white"/>
<path d="M28.7008 25.9856L23.7042 23.0464C23.3979 22.8662 23.019 22.8622 22.7089 23.0357L17.4306 25.9892C17.1147 26.166 16.9189 26.4998 16.9189 26.8619V32.9309C16.9189 33.2945 17.1163 33.6294 17.4342 33.8056L22.7126 36.7306C23.0208 36.9014 23.3962 36.8974 23.7007 36.72L28.6971 33.8094C29.0046 33.6302 29.1937 33.3012 29.1937 32.9453V26.8475C29.1937 26.4931 29.0062 26.1652 28.7008 25.9856Z" fill="white"/>
<path d="M42.5313 25.9856L37.5348 23.0464C37.2285 22.8662 36.8496 22.8622 36.5395 23.0357L31.2612 25.9892C30.9452 26.166 30.7495 26.4998 30.7495 26.8619V32.9309C30.7495 33.2945 30.9468 33.6294 31.2648 33.8056L36.5432 36.7306C36.8514 36.9014 37.2267 36.8974 37.5312 36.72L42.5277 33.8094C42.8352 33.6302 43.0243 33.3012 43.0243 32.9453V26.8475C43.0243 26.4931 42.8368 26.1652 42.5313 25.9856Z" fill="white"/>
</svg>
